HIERARCHY
ROOT hip
{
	OFFSET 0.000000 0.000000 0.000000 
	CHANNELS 6 Xposition Yposition Zposition Xrotation Zrotation Yrotation
	JOINT abdomen
	{
		OFFSET 0.000000 3.402643 0.000000 
		CHANNELS 3 Xrotation Zrotation Yrotation
		JOINT chest
		{
			OFFSET 0.000000 8.438565 -0.680529 
			CHANNELS 3 Xrotation Zrotation Yrotation
			JOINT neck
			{
				OFFSET 0.000000 10.207942 -0.272212 
				CHANNELS 3 Xrotation Zrotation Yrotation
				JOINT head
				{
					OFFSET 0.000000 3.130431 0.000000 
					CHANNELS 3 Xrotation Zrotation Yrotation
					End Site
					{
						OFFSET 0.000000 3.130435 0.000000 
					}
				}
			}
			JOINT lCollar
			{
				OFFSET 3.470700 6.669187 -0.816635 
				CHANNELS 3 Yrotation Zrotation Xrotation
				JOINT lShldr
				{
					OFFSET 3.198488 0.000000 0.000000 
					CHANNELS 3 Zrotation Yrotation Xrotation
					JOINT lForeArm
					{
						OFFSET 10.139888 0.000000 0.000000 
						CHANNELS 3 Yrotation Zrotation Xrotation
						JOINT lHand
						{
							OFFSET 8.370511 0.000000 0.000000 
							CHANNELS 3 Zrotation Yrotation Xrotation
							End Site
							{
								OFFSET 4.083176 0.000000 0.000000 
							}
						}
					}
				}
			}
			JOINT rCollar
			{
				OFFSET -3.470700 6.669187 -0.816635 
				CHANNELS 3 Yrotation Zrotation Xrotation
				JOINT rShldr
				{
					OFFSET -3.198488 0.000000 0.000000 
					CHANNELS 3 Zrotation Yrotation Xrotation
					JOINT rForeArm
					{
						OFFSET -10.139888 0.000000 0.000000 
						CHANNELS 3 Yrotation Zrotation Xrotation
						JOINT rHand
						{
							OFFSET -8.370511 0.000000 0.000000 
							CHANNELS 3 Zrotation Yrotation Xrotation
							End Site
							{
								OFFSET -4.083176 0.000000 0.000000 
							}
						}
					}
				}
			}
		}
	}
	JOINT lThigh
	{
		OFFSET 5.308129 -1.633274 1.361059 
		CHANNELS 3 Xrotation Zrotation Yrotation
		JOINT lShin
		{
			OFFSET -2.041588 -20.007561 0.000000 
			CHANNELS 3 Xrotation Zrotation Yrotation
			JOINT lFoot
			{
				OFFSET 0.000000 -19.190928 -1.224953 
				CHANNELS 3 Xrotation Yrotation Zrotation
				End Site
				{
					OFFSET 0.000000 -2.449906 4.627600 
				}
			}
		}
	}
	JOINT rThigh
	{
		OFFSET -5.308129 -1.633274 1.361059 
		CHANNELS 3 Xrotation Zrotation Yrotation
		JOINT rShin
		{
			OFFSET 2.041588 -20.007561 0.000000 
			CHANNELS 3 Xrotation Zrotation Yrotation
			JOINT rFoot
			{
				OFFSET 0.000000 -19.190928 -1.224953 
				CHANNELS 3 Xrotation Yrotation Zrotation
				End Site
				{
					OFFSET 0.000000 -2.449906 4.627600 
				}
			}
		}
	}
}
MOTION
Frames: 8
Frame Time: 0.033333
0.000000 35.419682 -1.989601 8.251954 0.000000 0.000000 10.673829 -8.828126 -6.622592 -9.375000 9.511719 4.591457 14.277344 -3.398438 0.605469 3.007812 -0.048828 0.371094 1.992188 -2.001953 0.000341 -61.132809 29.619143 -18.198299 -57.431641 -34.033203 -14.945705 -14.980468 -20.927736 2.467215 -2.001953 1.992188 0.000000 69.892578 8.476563 -26.542969 28.134768 7.275391 8.914780 12.646484 19.570314 -0.094383 -40.970802 4.501360 1.726939 83.138885 -8.543804 -9.829420 -53.870430 -5.758332 6.607192 -34.776333 -1.474490 -3.553328 137.701767 -2.991208 10.288613 -8.813087 -12.005710 -1.971773 
0.000000 35.817554 -1.574069 9.726563 0.087891 2.460938 11.523438 -9.453125 -5.333635 -10.234376 9.111328 1.572266 6.972656 -3.281250 0.732422 -0.595703 0.214844 0.214880 1.992188 -2.001953 0.000341 -64.492188 15.732422 -14.492188 -44.023438 -29.453129 -4.667968 -14.374999 -22.578125 2.486486 -2.001953 1.992188 0.000000 72.695313 -3.427734 -24.033789 18.027344 8.447266 12.880860 13.300781 18.056641 0.566406 -33.822201 5.321066 2.375375 78.763466 -9.500075 -9.030880 -57.525513 -10.037289 4.283736 -76.481583 -3.818254 -2.987595 132.933014 -3.504991 9.247882 2.643404 -9.780474 -0.023465 
0.000000 39.635597 -0.244452 11.250000 0.009766 5.273438 13.271484 -10.009766 -4.874743 -11.982422 8.681641 -2.451172 -1.093750 -3.173838 0.897894 -4.423828 0.517578 0.009766 1.992188 -2.001953 0.000341 -68.544922 0.869141 -10.341797 -42.656250 -22.246094 -0.679896 -13.720702 -24.375000 2.495970 -2.001953 1.992188 0.000000 76.835938 -16.142578 -22.024199 16.328125 11.904298 14.636659 14.003906 16.396484 1.347656 -19.163935 3.895268 1.940180 54.442467 -8.946774 -5.390209 -46.013168 -11.133457 2.518861 -77.336678 -4.980365 0.819649 97.963730 -1.005365 6.723367 -5.697187 -7.338861 0.524242 
0.000000 42.336639 1.507318 12.548829 -0.019531 7.529293 15.478517 -10.205079 -5.275167 -14.355468 8.613282 -4.637210 -8.798827 -3.037110 1.005342 -8.310547 0.791016 -0.175646 1.992188 -2.001953 0.000341 -71.855469 -14.072266 -6.486750 -61.855469 -11.816405 -7.646485 -13.085938 -26.123051 2.524997 -2.001953 1.992188 0.000000 79.169922 -28.955078 -19.106287 29.101561 18.300781 12.246094 14.677733 14.794922 2.021484 -5.357866 2.693546 0.906987 32.178555 -6.773214 -2.632812 -31.264990 -10.791919 1.355147 -75.028740 -6.054468 2.612452 86.060356 0.126981 5.106931 -31.069475 -8.802661 -1.887906 
0.000000 43.612965 2.265007 13.876953 0.000000 9.462891 17.968750 -10.185547 -5.880633 -16.972656 8.642578 -6.269533 -15.039064 -2.832031 0.917969 -12.080078 0.917969 -0.302734 1.992188 -2.001953 0.000341 -73.046875 -28.203125 -3.705785 -84.394531 -4.931641 -15.887831 -12.578125 -27.607422 2.568359 -2.001953 1.992188 0.000000 76.464844 -41.162109 -13.808594 44.394531 21.201174 7.779671 15.253906 13.447266 2.460938 4.280777 2.204689 -0.009064 17.560900 -4.464904 -0.781928 -19.080629 -11.023091 0.492878 -76.541977 -7.089554 4.007420 81.756042 0.263639 3.956414 -49.504738 -9.850171 -3.954893 
0.000000 43.800007 1.074638 15.283204 0.000000 11.162109 20.136719 -10.175780 -6.036881 -19.150391 8.476563 -8.631373 -18.720703 -2.519531 0.537109 -15.527344 0.810547 -0.361328 1.992188 -2.001953 0.000341 -70.712891 -40.595703 -2.724610 -91.455078 -7.167968 -15.703124 -12.304688 -28.642580 2.651569 -2.001953 1.992188 0.000000 65.478516 -52.050781 -4.646372 49.697266 16.562500 4.108544 15.595702 12.578125 2.480469 9.012661 2.197529 -0.133321 10.361669 -3.290076 0.380430 -11.044963 -12.341105 0.845392 -69.434395 -9.071958 5.211332 53.901829 1.427625 2.106666 -42.650555 -10.825488 -3.887994 
0.000000 41.576336 -0.244453 15.791015 0.000000 11.250000 19.892578 -10.205078 -5.693360 -18.906248 8.437499 -9.031771 -18.730469 -2.060653 -0.263973 -18.466797 0.371094 -0.253906 1.992188 -2.001953 0.000341 -63.417965 -50.380859 -4.343459 -83.798828 -11.689453 -11.335912 -12.333984 -29.003906 2.812500 -2.001953 1.992188 0.000000 42.421875 -60.781254 10.458986 48.291016 17.031250 3.164063 15.634766 12.373047 1.906391 0.985513 3.269468 0.427298 32.402142 -4.341528 -1.735777 -13.726022 -11.559246 4.275181 -59.143620 -10.565712 4.654002 27.040874 2.681062 0.995251 -23.847425 -11.032113 -2.680720 
0.000000 36.661743 0.068334 14.648437 -0.019531 8.671876 15.869141 -10.244140 -5.039062 -15.029297 8.837891 -5.144984 -14.306641 -1.494141 -1.435802 -20.292971 -0.380859 -0.019531 1.992188 -2.001953 0.000341 -51.972656 -56.181641 -8.806941 -67.509766 -11.181641 -8.789063 -12.714844 -28.515625 3.042214 -2.001953 1.992188 0.000000 8.876953 -66.269531 30.390623 47.197262 32.958984 4.785157 15.302733 12.978516 0.771484 -7.156376 4.901103 0.886658 62.531769 -5.189572 -5.835966 -13.034565 -6.599773 8.833352 -70.861938 -8.114773 3.364067 60.456264 1.602819 4.278404 -24.594336 -9.042984 -0.807213 
